<svg width="22" height="24" viewBox="0 0 22 24" fill="none" xmlns="http://www.w3.org/2000/svg">
<path d="M5.27757 10.1249C5.45757 10.1474 5.63007 10.1549 5.81007 10.1549C6.92007 10.1549 7.98507 9.7799 8.85507 9.0749C9.86757 8.2574 10.5051 7.0949 10.6476 5.7974C10.7901 4.4999 10.4151 3.2324 9.59757 2.2199C7.91007 0.127403 4.83507 -0.202598 2.74257 1.4849C1.73007 2.3024 1.09257 3.4649 0.950069 4.7624C0.807569 6.0599 1.18257 7.3274 2.00007 8.3399C2.82507 9.3524 3.98757 9.9899 5.27757 10.1249ZM3.19257 5.0024C3.26757 4.3049 3.61257 3.6824 4.15257 3.2399C4.62507 2.8574 5.19507 2.6624 5.79507 2.6624C5.89257 2.6624 5.98257 2.6699 6.08007 2.6774C6.77757 2.7524 7.40007 3.0974 7.84257 3.6449C8.28507 4.1924 8.48007 4.8749 8.40507 5.5724C8.33007 6.2699 7.98507 6.8924 7.44507 7.3349C6.90507 7.7774 6.21507 7.9724 5.51757 7.8974C4.82007 7.8224 4.19757 7.4774 3.75507 6.9299C3.32007 6.3824 3.11757 5.6999 3.19257 5.0024Z" fill="#130F49"/>
<path d="M20.42 15.6598C18.7325 13.5673 15.6575 13.2373 13.565 14.9248C12.5525 15.7423 11.915 16.9048 11.7725 18.2023C11.63 19.4998 12.005 20.7673 12.8225 21.7798C13.64 22.7923 14.8025 23.4298 16.1 23.5723C16.28 23.5948 16.4525 23.6023 16.6325 23.6023C17.7425 23.6023 18.8075 23.2273 19.6775 22.5223C21.77 20.8273 22.1075 17.7523 20.42 15.6598ZM18.2675 20.7598C17.72 21.2023 17.0375 21.3973 16.34 21.3223C15.6425 21.2473 15.02 20.9023 14.5775 20.3548C14.135 19.8073 13.94 19.1248 14.015 18.4273C14.09 17.7298 14.435 17.1073 14.975 16.6648C15.4625 16.2748 16.04 16.0873 16.6175 16.0873C17.3825 16.0873 18.1475 16.4248 18.665 17.0623C19.5725 18.1948 19.3925 19.8523 18.2675 20.7598Z" fill="#130F49"/>
<path d="M21.2 3.47238C20.81 2.98488 20.105 2.90988 19.6175 3.29988L0.927545 18.3599C0.440045 18.7499 0.365046 19.4549 0.755046 19.9424C0.980046 20.2199 1.30255 20.3624 1.63255 20.3624C1.88005 20.3624 2.12755 20.2799 2.33755 20.1149L21.0275 5.06238C21.515 4.66488 21.59 3.95988 21.2 3.47238Z" fill="#130F49"/>
</svg>
