<svg width="34" height="18" viewBox="0 0 34 18" fill="none" xmlns="http://www.w3.org/2000/svg">
<path d="M33.5 2.99988C33.5 4.64988 32.15 5.99988 30.5 5.99988C30.23 5.99988 29.975 5.96988 29.735 5.89488L24.395 11.2199C24.47 11.4599 24.5 11.7299 24.5 11.9999C24.5 13.6499 23.15 14.9999 21.5 14.9999C19.85 14.9999 18.5 13.6499 18.5 11.9999C18.5 11.7299 18.53 11.4599 18.605 11.2199L14.78 7.39488C14.54 7.46988 14.27 7.49988 14 7.49988C13.73 7.49988 13.46 7.46988 13.22 7.39488L6.395 14.2349C6.47 14.4749 6.5 14.7299 6.5 14.9999C6.5 16.6499 5.15 17.9999 3.5 17.9999C1.85 17.9999 0.5 16.6499 0.5 14.9999C0.5 13.3499 1.85 11.9999 3.5 11.9999C3.77 11.9999 4.025 12.0299 4.265 12.1049L11.105 5.27988C11.03 5.03988 11 4.76988 11 4.49988C11 2.84988 12.35 1.49988 14 1.49988C15.65 1.49988 17 2.84988 17 4.49988C17 4.76988 16.97 5.03988 16.895 5.27988L20.72 9.10488C20.96 9.02988 21.23 8.99988 21.5 8.99988C21.77 8.99988 22.04 9.02988 22.28 9.10488L27.605 3.76488C27.53 3.52488 27.5 3.26988 27.5 2.99988C27.5 1.34988 28.85 -0.00012207 30.5 -0.00012207C32.15 -0.00012207 33.5 1.34988 33.5 2.99988Z" fill="#130F49"/>
</svg>
